<svg aria-hidden="true" style="position: absolute; width: 0; height: 0; overflow: hidden;" version="1.1" xmlns="http://www.w3.org/2000/svg" xmlns:xlink="http://www.w3.org/1999/xlink">
<defs>
<symbol id="icon-chat" viewBox="0 0 46 32">
<path fill="#674d40" style="fill: var(--color1, #674d40)" d="M35.37 13.998c0-8.062-8.498-13.347-16.983-13.347-8.518 0-16.983 5.309-16.983 13.347 0 3.041 1.332 6.014 3.75 8.373 0.093 0.090 0.128 0.227 0.092 0.358-0.76 2.783-2.559 5.296-3.297 6.248-0.23 0.296-0.267 0.687-0.098 1.022 0.165 0.327 0.492 0.527 0.856 0.527 0.008 0 0.016 0 0.025-0 3.612-0.090 7.799-1.11 10.387-3.654 0.090-0.089 0.22-0.124 0.347-0.094 1.59 0.377 3.246 0.568 4.92 0.568 8.516-0 16.983-5.307 16.983-13.347zM13.765 25.518c-0.562-0.134-1.143 0.027-1.552 0.43-2.588 2.545-6.814 3.123-8.815 3.252 0.914-1.262 2.4-3.578 3.096-6.131 0.159-0.583-0.008-1.206-0.437-1.624-2.198-2.143-3.36-4.719-3.36-7.447 0-6.646 7.038-12.053 15.69-12.053s15.69 5.407 15.69 12.053c0 6.646-7.038 12.053-15.69 12.053-1.574 0-3.129-0.18-4.622-0.533z"></path>
<path fill="#674d40" style="fill: var(--color1, #674d40)" d="M39.529 24.743c3.77-1.905 6.021-5.153 6.021-8.687 0-4.995-4.515-9.263-10.736-10.149-0.353-0.050-0.681 0.195-0.731 0.549s0.196 0.681 0.549 0.731c5.577 0.794 9.625 4.524 9.625 8.868 0 3.036-1.986 5.852-5.311 7.533-0.647 0.327-0.993 1.049-0.843 1.757 0.315 1.482 0.987 2.854 1.524 3.784-3.819-0.636-5.266-2.468-5.724-3.261-0.282-0.49-0.811-0.793-1.381-0.793-0.002 0-0.003 0-0.005 0h-0.047c-0.717 0-1.435-0.050-2.134-0.148-0.353-0.050-0.681 0.197-0.73 0.55s0.197 0.681 0.551 0.73c0.758 0.107 1.537 0.161 2.314 0.161h0.053c0.108 0 0.207 0.056 0.26 0.146 1.751 3.035 5.778 3.81 7.427 4.003 0.364 0.042 0.711-0.124 0.906-0.436s0.191-0.695-0.007-1.004c-0.497-0.774-1.384-2.323-1.741-4.002-0.029-0.134 0.038-0.272 0.161-0.334z"></path>
<path fill="#674d40" style="fill: var(--color1, #674d40)" d="M8.324 11.685c-1.236 0-2.241 1.005-2.241 2.241s1.005 2.241 2.241 2.241c1.236 0 2.241-1.005 2.241-2.241s-1.005-2.241-2.241-2.241zM8.324 14.874c-0.523 0-0.948-0.425-0.948-0.948s0.425-0.948 0.948-0.948c0.523 0 0.948 0.425 0.948 0.948s-0.425 0.948-0.948 0.948z"></path>
<path fill="#674d40" style="fill: var(--color1, #674d40)" d="M14.718 11.685c-1.236 0-2.241 1.005-2.241 2.241s1.005 2.241 2.241 2.241c1.236 0 2.241-1.005 2.241-2.241s-1.005-2.241-2.241-2.241zM14.718 14.874c-0.523 0-0.948-0.425-0.948-0.948s0.425-0.948 0.948-0.948c0.523 0 0.948 0.425 0.948 0.948s-0.425 0.948-0.948 0.948z"></path>
<path fill="#674d40" style="fill: var(--color1, #674d40)" d="M21.111 11.685c-1.236 0-2.241 1.005-2.241 2.241s1.005 2.241 2.241 2.241c1.236 0 2.241-1.005 2.241-2.241s-1.005-2.241-2.241-2.241zM21.111 14.874c-0.523 0-0.948-0.425-0.948-0.948s0.425-0.948 0.948-0.948c0.523 0 0.948 0.425 0.948 0.948s-0.425 0.948-0.948 0.948z"></path>
<path fill="#674d40" style="fill: var(--color1, #674d40)" d="M27.505 11.685c-1.236 0-2.241 1.005-2.241 2.241s1.006 2.241 2.241 2.241c1.236 0 2.241-1.005 2.241-2.241s-1.005-2.241-2.241-2.241zM27.505 14.874c-0.523 0-0.948-0.425-0.948-0.948s0.425-0.948 0.948-0.948c0.523 0 0.948 0.425 0.948 0.948s-0.425 0.948-0.948 0.948z"></path>
</symbol>
<symbol id="icon-chef-hat" viewBox="0 0 35 32">
<path fill="#674d40" style="fill: var(--color1, #674d40)" d="M25.172 8.292c-0.124 0-0.243-0.049-0.33-0.137s-0.137-0.207-0.137-0.33c-0.036-1.79-0.773-3.495-2.052-4.749s-2.999-1.956-4.789-1.956c-1.791 0-3.51 0.702-4.789 1.956s-2.016 2.958-2.052 4.749c0 0.124-0.049 0.243-0.137 0.33s-0.207 0.137-0.33 0.137c-0.124 0-0.243-0.049-0.33-0.137s-0.137-0.207-0.137-0.33c0.032-2.041 0.865-3.989 2.32-5.421s3.415-2.235 5.456-2.235c2.042 0 4.002 0.803 5.456 2.235s2.288 3.38 2.32 5.421c0 0.124-0.049 0.243-0.137 0.33s-0.206 0.137-0.33 0.137z"></path>
<path fill="#674d40" style="fill: var(--color1, #674d40)" d="M26.536 18.868c-0.124 0.001-0.243-0.048-0.331-0.135s-0.138-0.206-0.139-0.33 0.048-0.243 0.135-0.331c0.087-0.088 0.206-0.138 0.33-0.139 1.78-0.010 3.484-0.719 4.747-1.973s1.984-2.954 2.007-4.733c-0.018-1.797-0.747-3.514-2.029-4.774s-3.011-1.96-4.808-1.947c-0.69-0.001-1.376 0.101-2.036 0.302-0.118 0.034-0.245 0.021-0.352-0.038s-0.189-0.157-0.225-0.274c-0.036-0.117-0.024-0.244 0.032-0.353s0.154-0.191 0.271-0.229c0.749-0.228 1.527-0.344 2.31-0.343 2.045-0.013 4.012 0.786 5.469 2.221s2.285 3.389 2.303 5.434c-0.024 2.025-0.842 3.961-2.277 5.389s-3.375 2.237-5.4 2.252h-0.006z"></path>
<path fill="#674d40" style="fill: var(--color1, #674d40)" d="M9.188 18.868h-0.006c-2.026-0.014-3.965-0.823-5.4-2.252s-2.253-3.364-2.277-5.389c0.018-2.045 0.846-3.999 2.303-5.434s3.424-2.234 5.469-2.221c0.783-0.001 1.561 0.115 2.31 0.343 0.059 0.017 0.115 0.046 0.163 0.085s0.088 0.087 0.118 0.142c0.029 0.054 0.048 0.114 0.054 0.176s-0 0.124-0.018 0.183c-0.018 0.059-0.048 0.114-0.088 0.162s-0.088 0.087-0.143 0.116c-0.055 0.029-0.115 0.046-0.177 0.051s-0.124-0.002-0.183-0.021c-0.66-0.201-1.346-0.303-2.036-0.302-1.797-0.013-3.526 0.687-4.808 1.947s-2.011 2.977-2.029 4.774c0.023 1.78 0.744 3.479 2.007 4.733s2.968 1.963 4.747 1.973c0.061 0 0.122 0.013 0.179 0.037s0.108 0.059 0.151 0.102c0.043 0.044 0.077 0.096 0.1 0.152s0.035 0.118 0.034 0.179c-0 0.061-0.013 0.122-0.037 0.179s-0.059 0.108-0.102 0.151c-0.044 0.043-0.095 0.077-0.152 0.1s-0.118 0.035-0.179 0.035z"></path>
<path fill="#674d40" style="fill: var(--color1, #674d40)" d="M26.536 30.495h-17.348c-0.124 0-0.243-0.049-0.33-0.137s-0.137-0.206-0.137-0.33v-11.626c0-0.124 0.049-0.243 0.137-0.33s0.207-0.137 0.33-0.137c0.124 0 0.243 0.049 0.33 0.137s0.137 0.206 0.137 0.33v11.158h16.413v-11.158c0-0.124 0.049-0.243 0.137-0.33s0.206-0.137 0.33-0.137 0.243 0.049 0.33 0.137c0.088 0.088 0.137 0.206 0.137 0.33v11.626c0 0.124-0.049 0.243-0.137 0.33s-0.206 0.137-0.33 0.137z"></path>
<path fill="#674d40" style="fill: var(--color1, #674d40)" d="M29.788 25.966h-17.348c-0.124 0-0.243-0.049-0.33-0.137s-0.137-0.206-0.137-0.33c0-0.124 0.049-0.243 0.137-0.33s0.207-0.137 0.33-0.137h17.348c0.124 0 0.243 0.049 0.33 0.137s0.137 0.206 0.137 0.33-0.049 0.243-0.137 0.33c-0.088 0.088-0.206 0.137-0.33 0.137z"></path>
</symbol>
<symbol id="icon-clock" viewBox="0 0 34 32">
<path fill="#674d40" style="fill: var(--color1, #674d40)" d="M16.631 0.249c-8.7 0-15.778 7.078-15.778 15.778s7.078 15.778 15.778 15.778c8.7 0 15.778-7.078 15.778-15.778s-7.078-15.778-15.778-15.778zM16.631 30.752c-8.12 0-14.726-6.606-14.726-14.726s6.606-14.726 14.726-14.726c8.12 0 14.726 6.606 14.726 14.726s-6.606 14.726-14.726 14.726z"></path>
<path fill="#674d40" style="fill: var(--color1, #674d40)" d="M17.157 13.934v-5.334c0-0.291-0.236-0.526-0.526-0.526s-0.526 0.235-0.526 0.526v5.334c-0.736 0.191-1.312 0.767-1.503 1.503h-3.756c-0.29 0-0.526 0.235-0.526 0.526s0.236 0.526 0.526 0.526h3.756c0.235 0.905 1.052 1.578 2.029 1.578 1.16 0 2.104-0.944 2.104-2.104 0-0.978-0.673-1.794-1.578-2.029zM16.631 17.015c-0.58 0-1.052-0.472-1.052-1.052s0.472-1.052 1.052-1.052c0.58 0 1.052 0.472 1.052 1.052s-0.472 1.052-1.052 1.052z"></path>
<path fill="#674d40" style="fill: var(--color1, #674d40)" d="M16.631 5.445c0.29 0 0.526-0.235 0.526-0.526v-0.526c0-0.291-0.236-0.526-0.526-0.526s-0.526 0.235-0.526 0.526v0.526c0 0.291 0.236 0.526 0.526 0.526z"></path>
<path fill="#674d40" style="fill: var(--color1, #674d40)" d="M16.631 26.482c-0.29 0-0.526 0.235-0.526 0.526v0.526c0 0.291 0.236 0.526 0.526 0.526s0.526-0.235 0.526-0.526v-0.526c0-0.291-0.236-0.526-0.526-0.526z"></path>
<path fill="#674d40" style="fill: var(--color1, #674d40)" d="M28.201 15.437h-0.526c-0.29 0-0.526 0.235-0.526 0.526s0.236 0.526 0.526 0.526h0.526c0.29 0 0.526-0.235 0.526-0.526s-0.236-0.526-0.526-0.526z"></path>
<path fill="#674d40" style="fill: var(--color1, #674d40)" d="M5.587 15.437h-0.526c-0.29 0-0.526 0.235-0.526 0.526s0.236 0.526 0.526 0.526h0.526c0.29 0 0.526-0.235 0.526-0.526s-0.236-0.526-0.526-0.526z"></path>
<path fill="#674d40" style="fill: var(--color1, #674d40)" d="M24.441 7.41l-0.372 0.372c-0.206 0.206-0.206 0.538 0 0.744 0.103 0.103 0.237 0.154 0.372 0.154s0.269-0.052 0.372-0.154l0.372-0.372c0.206-0.206 0.206-0.538 0-0.744s-0.538-0.205-0.744 0z"></path>
<path fill="#674d40" style="fill: var(--color1, #674d40)" d="M8.45 23.4l-0.372 0.372c-0.206 0.206-0.206 0.538 0 0.744 0.103 0.103 0.237 0.154 0.372 0.154s0.269-0.052 0.372-0.154l0.372-0.372c0.206-0.206 0.206-0.538 0-0.744s-0.539-0.205-0.744 0z"></path>
<path fill="#674d40" style="fill: var(--color1, #674d40)" d="M24.813 23.401c-0.206-0.206-0.538-0.206-0.744 0s-0.206 0.538 0 0.744l0.372 0.372c0.103 0.103 0.237 0.154 0.372 0.154s0.269-0.052 0.372-0.154c0.206-0.206 0.206-0.538 0-0.744l-0.372-0.372z"></path>
<path fill="#674d40" style="fill: var(--color1, #674d40)" d="M8.822 7.409c-0.206-0.206-0.538-0.206-0.744 0s-0.206 0.538 0 0.744l0.372 0.372c0.103 0.103 0.237 0.154 0.372 0.154s0.269-0.052 0.372-0.154c0.206-0.206 0.206-0.538 0-0.744l-0.372-0.372z"></path>
</symbol>
<symbol id="icon-close-menu" viewBox="0 0 32 32">
<path d="M30.355 32c0.422 0 0.843-0.16 1.163-0.483 0.643-0.643 0.643-1.685 0-2.328l-28.707-28.707c-0.643-0.643-1.685-0.643-2.328 0s-0.643 1.685 0 2.329l28.707 28.706c0.323 0.321 0.744 0.483 1.165 0.483z"></path>
<path d="M1.645 32c0.422 0 0.843-0.16 1.163-0.483l28.709-28.706c0.643-0.643 0.643-1.686 0-2.329s-1.685-0.643-2.329 0l-28.707 28.707c-0.643 0.643-0.643 1.685 0 2.328 0.323 0.321 0.744 0.483 1.163 0.483z"></path>
</symbol>
<symbol id="icon-facebook" viewBox="0 0 19 32">
<path d="M16.649 0.007l-4.15-0.007c-4.662 0-7.675 3.091-7.675 7.875v3.631h-4.172c-0.361 0-0.652 0.292-0.652 0.653v5.261c0 0.361 0.292 0.653 0.652 0.653h4.172v13.275c0 0.361 0.292 0.652 0.652 0.652h5.444c0.361 0 0.652-0.292 0.652-0.652v-13.275h4.878c0.361 0 0.652-0.292 0.652-0.653l0.002-5.261c0-0.173-0.069-0.339-0.191-0.461s-0.289-0.191-0.462-0.191h-4.88v-3.078c0-1.479 0.353-2.23 2.28-2.23l2.795-0.001c0.36 0 0.652-0.292 0.652-0.652v-4.885c0-0.36-0.292-0.652-0.652-0.652z"></path>
</symbol>
<symbol id="icon-instagram" viewBox="0 0 32 32">
<path d="M16.316 32c-0.106 0-0.212 0-0.319-0-2.508 0.006-4.826-0.058-7.080-0.195-2.066-0.126-3.953-0.84-5.455-2.065-1.45-1.182-2.44-2.781-2.942-4.75-0.438-1.715-0.461-3.398-0.483-5.026-0.016-1.168-0.033-2.553-0.036-3.96 0.003-1.414 0.020-2.798 0.036-3.966 0.022-1.628 0.045-3.311 0.483-5.026 0.503-1.97 1.493-3.568 2.942-4.75 1.503-1.225 3.389-1.939 5.456-2.065 2.254-0.137 4.572-0.201 7.086-0.195 2.509-0.005 4.826 0.058 7.080 0.195 2.067 0.126 3.953 0.84 5.455 2.065 1.45 1.182 2.44 2.78 2.942 4.75 0.438 1.715 0.461 3.398 0.483 5.026 0.016 1.168 0.033 2.553 0.036 3.96v0.006c-0.003 1.408-0.020 2.792-0.036 3.96-0.022 1.628-0.045 3.311-0.483 5.026-0.503 1.97-1.493 3.568-2.942 4.75-1.502 1.225-3.389 1.939-5.455 2.065-2.158 0.131-4.376 0.195-6.768 0.195zM15.997 29.499c2.468 0.006 4.733-0.056 6.934-0.19 1.562-0.095 2.917-0.602 4.027-1.507 1.026-0.837 1.733-1.991 2.1-3.431 0.364-1.428 0.385-2.96 0.406-4.442 0.016-1.16 0.032-2.535 0.036-3.929-0.004-1.394-0.020-2.769-0.036-3.929-0.020-1.482-0.041-3.015-0.406-4.443-0.367-1.44-1.074-2.594-2.1-3.431-1.11-0.905-2.465-1.412-4.027-1.507-2.201-0.134-4.467-0.196-6.929-0.19-2.467-0.006-4.733 0.056-6.934 0.19-1.563 0.095-2.917 0.602-4.027 1.507-1.026 0.837-1.732 1.991-2.1 3.431-0.364 1.428-0.385 2.96-0.406 4.443-0.016 1.161-0.032 2.537-0.036 3.932 0.003 1.389 0.020 2.765 0.036 3.926 0.020 1.482 0.041 3.015 0.406 4.442 0.367 1.44 1.074 2.594 2.1 3.431 1.11 0.905 2.465 1.412 4.027 1.507 2.201 0.134 4.467 0.197 6.928 0.19zM15.937 23.813c-4.308 0-7.813-3.505-7.813-7.813s3.505-7.813 7.813-7.813c4.308 0 7.813 3.505 7.813 7.813s-3.505 7.813-7.813 7.813zM15.937 10.687c-2.929 0-5.313 2.383-5.313 5.313s2.383 5.313 5.313 5.313c2.929 0 5.313-2.383 5.313-5.313s-2.383-5.313-5.313-5.313zM24.625 5.687c-1.035 0-1.875 0.839-1.875 1.875s0.84 1.875 1.875 1.875c1.036 0 1.875-0.839 1.875-1.875s-0.839-1.875-1.875-1.875z"></path>
</symbol>
<symbol id="icon-location" viewBox="0 0 23 32">
<path d="M11.733 1.193c6.47 0 11.733 5.264 11.733 11.733 0 2.56-0.809 4.993-2.341 7.034l-8.669 11.676c-0.022 0.028-0.055 0.039-0.079 0.064-0.433 0.464-1.058 0.347-1.367-0.064-2.496-3.331-7.072-9.552-8.832-11.899 0 0-0.001-0.002-0.001-0.003l-0.011-0.014c-1.418-1.992-2.167-4.341-2.167-6.794 0-6.47 5.264-11.733 11.733-11.733zM11.733 19.256c3.483 0 6.33-2.847 6.33-6.33s-2.847-6.33-6.33-6.33c-3.483 0-6.33 2.847-6.33 6.33s2.847 6.33 6.33 6.33z"></path>
</symbol>
<symbol id="icon-mobile-menu" viewBox="0 0 60 32">
<path d="M2 0h56c1.105 0 2 0.895 2 2s-0.895 2-2 2h-56c-1.105 0-2-0.895-2-2s0.895-2 2-2z"></path>
<path d="M2 14h56c1.105 0 2 0.895 2 2s-0.895 2-2 2h-56c-1.105 0-2-0.895-2-2s0.895-2 2-2z"></path>
<path d="M2 28h56c1.105 0 2 0.895 2 2s-0.895 2-2 2h-56c-1.105 0-2-0.895-2-2s0.895-2 2-2z"></path>
</symbol>
<symbol id="icon-people" viewBox="0 0 35 32">
<path fill="#674d40" style="fill: var(--color1, #674d40)" d="M11.976 0.729c-3.63 0-6.587 2.957-6.587 6.587s2.957 6.587 6.587 6.587c3.63 0 6.587-2.957 6.587-6.587s-2.957-6.587-6.587-6.587zM11.976 12.799c-3.031 0-5.489-2.465-5.489-5.489s2.465-5.489 5.489-5.489c3.031 0 5.489 2.465 5.489 5.489s-2.465 5.489-5.489 5.489z"></path>
<path fill="#674d40" style="fill: var(--color1, #674d40)" d="M25.467 3.463c-2.728 0-4.944 2.216-4.944 4.944s2.216 4.944 4.944 4.944c2.728 0 4.944-2.216 4.944-4.944s-2.216-4.944-4.944-4.944zM25.467 12.26c-2.122 0-3.846-1.724-3.846-3.846s1.724-3.846 3.846-3.846c2.122 0 3.846 1.724 3.846 3.846s-1.724 3.846-3.846 3.846z"></path>
<path fill="#674d40" style="fill: var(--color1, #674d40)" d="M34.31 20.599c-0.498-3.004-2.364-5.537-5.543-6.864 0 0-1.408 1.064-3.3 1.031-2.068-0.040-3.3-1.031-3.3-1.031s-1.536 0.572-2.775 1.765c-1.145-1.017-3.078-1.846-3.078-1.846s-1.771 1.347-4.344 1.327c-2.701-0.020-4.331-1.327-4.331-1.327s-5.84 2.007-7.072 8.817c0 0-1.32 3.61 1.738 9.005h19.351c0 0 1.374-2.391 1.616-3.846h9.625c2.364-3.583 1.414-7.032 1.414-7.032zM20.974 30.378h-17.991c-2.351-4.466-1.334-7.726-1.334-7.726 0.573-3.415 2.768-6.298 5.907-7.759 2.694 1.583 6.15 1.583 8.844 0 3.139 1.462 5.335 4.344 5.907 7.759-0.007 0 0.97 4.014-1.334 7.726zM32.256 26.533h-8.763c0.337-1.94-0.108-4.061-0.108-4.061-0.397-2.398-1.529-4.56-3.186-6.23 0.566-0.512 1.192-0.936 1.879-1.266 2.068 1.185 4.701 1.185 6.769 0 2.324 1.111 3.954 3.26 4.378 5.806 0 0 0.802 2.721-0.97 5.752z"></path>
</symbol>
<symbol id="icon-phone" viewBox="0 0 32 32">
<path d="M29.43 21.003c-1.959 0-3.882-0.306-5.705-0.909-0.893-0.305-1.991-0.025-2.536 0.535l-3.598 2.716c-4.172-2.227-6.743-4.797-8.939-8.938l2.636-3.504c0.685-0.684 0.931-1.683 0.636-2.62-0.605-1.832-0.912-3.755-0.912-5.715 0-1.416-1.152-2.568-2.567-2.568h-5.876c-1.416 0-2.568 1.152-2.568 2.568 0 16.228 13.202 29.43 29.43 29.43 1.416 0 2.568-1.152 2.568-2.568v-5.86c0-1.416-1.152-2.567-2.568-2.567z"></path>
</symbol>
<symbol id="icon-twitter" viewBox="0 0 40 32">
<path d="M40.421 3.788c-1.503 0.642-3.105 1.068-4.775 1.275 1.718-0.999 3.029-2.57 3.645-4.463-1.602 0.93-3.37 1.588-5.255 1.954-1.521-1.578-3.688-2.555-6.053-2.555-4.588 0-8.281 3.628-8.281 8.076 0 0.64 0.056 1.255 0.192 1.841-6.889-0.327-12.985-3.545-17.080-8.446-0.715 1.209-1.134 2.592-1.134 4.081 0 2.796 1.478 5.275 3.681 6.71-1.331-0.025-2.637-0.401-3.744-0.994 0 0.025 0 0.057 0 0.089 0 3.924 2.872 7.183 6.639 7.934-0.675 0.18-1.41 0.266-2.173 0.266-0.531 0-1.066-0.029-1.569-0.138 1.074 3.197 4.12 5.548 7.743 5.625-2.819 2.149-6.399 3.444-10.275 3.444-0.68 0-1.331-0.030-1.983-0.111 3.671 2.307 8.021 3.623 12.712 3.623 15.249 0 23.586-12.308 23.586-22.976 0-0.357-0.013-0.702-0.030-1.044 1.645-1.137 3.027-2.558 4.153-4.192z"></path>
</symbol>
</defs>
</svg>
