<svg width="26" height="18" viewBox="0 0 26 18" fill="none" xmlns="http://www.w3.org/2000/svg">
<path d="M19.8956 7.87416C19.8956 3.33923 15.1152 0.366699 10.3427 0.366699C5.55108 0.366699 0.789795 3.35319 0.789795 7.87416C0.789795 9.58455 1.53889 11.2571 2.89915 12.5838C2.95119 12.6346 2.97113 12.7116 2.95114 12.7849C2.5239 14.3501 1.51197 15.764 1.09676 16.2992C0.967599 16.4657 0.946356 16.6859 1.04137 16.8739C1.13425 17.0578 1.31787 17.1704 1.52303 17.1704C1.52769 17.1704 1.5323 17.1704 1.53695 17.1703C3.5688 17.1196 5.92396 16.5461 7.37976 15.1149C7.43064 15.0648 7.50364 15.045 7.57513 15.0621C8.46958 15.2742 9.40075 15.3817 10.3427 15.3817C15.1329 15.3816 19.8956 12.3963 19.8956 7.87416ZM7.74299 14.3541C7.42671 14.279 7.10016 14.3695 6.86973 14.596C5.41388 16.0274 3.0366 16.3528 1.91123 16.4251C2.4253 15.7155 3.26111 14.4122 3.653 12.9764C3.74258 12.6483 3.64834 12.2983 3.4071 12.0629C2.17081 10.8572 1.51731 9.40868 1.51731 7.87416C1.51731 4.13571 5.47634 1.09421 10.3427 1.09421C15.209 1.09421 19.1681 4.13566 19.1681 7.87416C19.1681 11.6127 15.209 14.6541 10.3427 14.6541C9.45721 14.6541 8.58259 14.5531 7.74299 14.3541Z" fill="#674D40"/>
<path d="M22.2353 13.9181C24.3562 12.8463 25.6223 11.0195 25.6223 9.03141C25.6223 6.2217 23.0825 3.8209 19.5831 3.32275C19.3845 3.29452 19.2 3.4327 19.1717 3.6316C19.1434 3.83051 19.2817 4.01467 19.4806 4.04299C22.6178 4.48959 24.8948 6.58749 24.8948 9.03141C24.8948 10.7392 23.7779 12.3233 21.9071 13.2688C21.5433 13.4527 21.3484 13.8591 21.4331 14.2573C21.6105 15.0908 21.9881 15.8626 22.2901 16.3857C20.142 16.0282 19.3278 14.9974 19.0703 14.5513C18.9114 14.2759 18.6142 14.1052 18.2934 14.1052C18.2925 14.1052 18.2915 14.1052 18.2906 14.1052L18.264 14.1052C17.8606 14.1052 17.4567 14.0773 17.0636 14.022C16.8651 13.9941 16.6807 14.1327 16.6527 14.3316C16.6248 14.5306 16.7634 14.7145 16.9624 14.7424C17.3889 14.8023 17.8268 14.8327 18.264 14.8327L18.2935 14.8327H18.2941C18.3549 14.8327 18.4108 14.8641 18.4402 14.9149C19.4254 16.6223 21.6901 17.0582 22.6181 17.1664C22.823 17.1902 23.0183 17.0966 23.1277 16.9214C23.2368 16.7467 23.2354 16.5304 23.124 16.3569C22.8445 15.9216 22.3457 15.0503 22.1448 14.1059C22.1287 14.0304 22.1659 13.9531 22.2353 13.9181Z" fill="#674D40"/>
<path d="M4.68232 6.573C3.98715 6.573 3.42163 7.13857 3.42163 7.83368C3.42163 8.5288 3.98715 9.09437 4.68232 9.09437C5.37748 9.09437 5.943 8.5288 5.943 7.83368C5.943 7.13857 5.37748 6.573 4.68232 6.573ZM4.68232 8.3669C4.3883 8.3669 4.14915 8.1277 4.14915 7.83373C4.14915 7.53977 4.38835 7.30056 4.68232 7.30056C4.97628 7.30056 5.21549 7.53977 5.21549 7.83373C5.21549 8.1277 4.97628 8.3669 4.68232 8.3669Z" fill="#674D40"/>
<path d="M8.27875 6.573C7.58359 6.573 7.01807 7.13857 7.01807 7.83368C7.01807 8.5288 7.58359 9.09437 8.27875 9.09437C8.97392 9.09437 9.53944 8.5288 9.53944 7.83368C9.53944 7.13857 8.97392 6.573 8.27875 6.573ZM8.27875 8.3669C7.98474 8.3669 7.74558 8.1277 7.74558 7.83373C7.74558 7.53977 7.98479 7.30056 8.27875 7.30056C8.57272 7.30056 8.81192 7.53977 8.81192 7.83373C8.81192 8.1277 8.57276 8.3669 8.27875 8.3669Z" fill="#674D40"/>
<path d="M11.8752 6.573C11.18 6.573 10.6145 7.13857 10.6145 7.83368C10.6145 8.5288 11.18 9.09437 11.8752 9.09437C12.5704 9.09437 13.1359 8.5288 13.1359 7.83368C13.1359 7.13857 12.5704 6.573 11.8752 6.573ZM11.8752 8.3669C11.5812 8.3669 11.342 8.1277 11.342 7.83373C11.342 7.53977 11.5812 7.30056 11.8752 7.30056C12.1692 7.30056 12.4084 7.53977 12.4084 7.83373C12.4084 8.1277 12.1692 8.3669 11.8752 8.3669Z" fill="#674D40"/>
<path d="M15.4716 6.573C14.7765 6.573 14.2109 7.13857 14.2109 7.83368C14.2109 8.5288 14.7765 9.09437 15.4716 9.09437C16.1668 9.09437 16.7323 8.5288 16.7323 7.83368C16.7323 7.13857 16.1668 6.573 15.4716 6.573ZM15.4716 8.3669C15.1776 8.3669 14.9385 8.1277 14.9385 7.83373C14.9385 7.53977 15.1777 7.30056 15.4716 7.30056C15.7656 7.30056 16.0048 7.53977 16.0048 7.83373C16.0048 8.1277 15.7656 8.3669 15.4716 8.3669Z" fill="#674D40"/>
</svg>
