<svg width="21" height="19" viewBox="0 0 21 19" fill="none" xmlns="http://www.w3.org/2000/svg">
<path d="M14.9457 4.92363C14.8721 4.92363 14.8015 4.8944 14.7495 4.84236C14.6974 4.79032 14.6682 4.71974 14.6682 4.64615C14.6467 3.58305 14.2092 2.57075 13.4498 1.82652C12.6904 1.08229 11.6694 0.665444 10.6061 0.665444C9.54278 0.665444 8.52183 1.08229 7.76239 1.82652C7.00294 2.57075 6.56551 3.58305 6.54398 4.64615C6.54398 4.71974 6.51475 4.79032 6.46271 4.84236C6.41067 4.8944 6.34009 4.92363 6.2665 4.92363C6.19291 4.92363 6.12233 4.8944 6.07029 4.84236C6.01825 4.79032 5.98901 4.71974 5.98901 4.64615C6.00781 3.43402 6.50252 2.2779 7.36634 1.42736C8.23017 0.576823 9.39382 0.100098 10.6061 0.100098C11.8184 0.100098 12.982 0.576823 13.8458 1.42736C14.7097 2.2779 15.2044 3.43402 15.2232 4.64615C15.2232 4.71974 15.1939 4.79032 15.1419 4.84236C15.0899 4.8944 15.0193 4.92363 14.9457 4.92363Z" fill="#674D40"/>
<path d="M15.7555 11.2031C15.6819 11.2035 15.6112 11.1747 15.5588 11.123C15.5065 11.0712 15.4768 11.0008 15.4764 10.9272C15.476 10.8536 15.5048 10.7829 15.5565 10.7305C15.6082 10.6782 15.6786 10.6485 15.7522 10.6481C16.809 10.6419 17.8211 10.2212 18.571 9.4766C19.3209 8.73199 19.7487 7.72286 19.7624 6.66616C19.752 5.59909 19.3187 4.57973 18.5576 3.83169C17.7966 3.08365 16.7699 2.668 15.7028 2.67592C15.2931 2.67524 14.8857 2.73566 14.4938 2.85517C14.4238 2.87551 14.3486 2.86748 14.2845 2.83284C14.2204 2.79819 14.1725 2.7397 14.1511 2.67001C14.1297 2.60033 14.1367 2.52503 14.1704 2.4604C14.2041 2.39577 14.2618 2.347 14.3312 2.32462C14.7758 2.18898 15.238 2.12033 15.7028 2.12094C16.9171 2.11318 18.0848 2.58735 18.9499 3.43944C19.815 4.29152 20.3068 5.45195 20.3174 6.66616C20.3032 7.86875 19.8177 9.01774 18.9652 9.86613C18.1128 10.7145 16.9615 11.1946 15.7589 11.2031H15.7555Z" fill="#674D40"/>
<path d="M5.45542 11.2031H5.45209C4.24945 11.1946 3.09816 10.7145 2.24572 9.86613C1.39329 9.01774 0.907771 7.86875 0.893555 6.66616C0.904185 5.45195 1.39599 4.29152 2.26108 3.43944C3.12616 2.58735 4.29391 2.11318 5.50814 2.12094C5.97292 2.12033 6.4352 2.18898 6.87975 2.32462C6.91508 2.33488 6.948 2.35206 6.97663 2.37516C7.00525 2.39827 7.02899 2.42683 7.04648 2.45919C7.06396 2.49155 7.07483 2.52707 7.07847 2.56367C7.0821 2.60027 7.07842 2.63723 7.06765 2.6724C7.05687 2.70757 7.0392 2.74024 7.01568 2.76852C6.99216 2.7968 6.96326 2.82012 6.93064 2.83713C6.89803 2.85414 6.86236 2.86449 6.82571 2.86759C6.78905 2.87068 6.75215 2.86646 6.71715 2.85517C6.3253 2.73566 5.91781 2.67524 5.50814 2.67592C4.44105 2.668 3.41438 3.08365 2.65333 3.83169C1.89229 4.57973 1.459 5.59909 1.44853 6.66616C1.46225 7.72286 1.89004 8.73199 2.63994 9.4766C3.38985 10.2212 4.40198 10.6419 5.45875 10.6481C5.49519 10.6483 5.53123 10.6557 5.56481 10.6698C5.59839 10.684 5.62886 10.7046 5.65447 10.7305C5.68009 10.7565 5.70034 10.7872 5.71408 10.8209C5.72783 10.8547 5.73479 10.8908 5.73457 10.9272C5.73435 10.9637 5.72696 10.9997 5.71281 11.0333C5.69866 11.0669 5.67804 11.0974 5.65212 11.123C5.6262 11.1486 5.59549 11.1688 5.56174 11.1826C5.52799 11.1963 5.49186 11.2033 5.45542 11.2031Z" fill="#674D40"/>
<path d="M15.7557 18.1062H5.45546C5.38187 18.1062 5.31129 18.0769 5.25925 18.0249C5.20721 17.9728 5.17798 17.9023 5.17798 17.8287V10.9259C5.17798 10.8523 5.20721 10.7817 5.25925 10.7297C5.31129 10.6777 5.38187 10.6484 5.45546 10.6484C5.52906 10.6484 5.59964 10.6777 5.65168 10.7297C5.70371 10.7817 5.73295 10.8523 5.73295 10.9259V17.5512H15.4782V10.9259C15.4782 10.8523 15.5075 10.7817 15.5595 10.7297C15.6116 10.6777 15.6821 10.6484 15.7557 10.6484C15.8293 10.6484 15.8999 10.6777 15.9519 10.7297C16.004 10.7817 16.0332 10.8523 16.0332 10.9259V17.8287C16.0332 17.9023 16.004 17.9728 15.9519 18.0249C15.8999 18.0769 15.8293 18.1062 15.7557 18.1062Z" fill="#674D40"/>
<path d="M17.6869 15.4173H7.38662C7.31302 15.4173 7.24244 15.388 7.1904 15.336C7.13837 15.284 7.10913 15.2134 7.10913 15.1398C7.10913 15.0662 7.13837 14.9956 7.1904 14.9436C7.24244 14.8915 7.31302 14.8623 7.38662 14.8623H17.6869C17.7605 14.8623 17.8311 14.8915 17.8831 14.9436C17.9351 14.9956 17.9644 15.0662 17.9644 15.1398C17.9644 15.2134 17.9351 15.284 17.8831 15.336C17.8311 15.388 17.7605 15.4173 17.6869 15.4173Z" fill="#674D40"/>
</svg>
