<svg width="21" height="20" viewBox="0 0 21 20" fill="none" xmlns="http://www.w3.org/2000/svg">
<g clip-path="url(#clip0)">
<path d="M10.3946 0.155518C4.95714 0.155518 0.533447 4.57921 0.533447 10.0166C0.533447 15.454 4.95714 19.8777 10.3946 19.8777C15.832 19.8777 20.2557 15.454 20.2557 10.0166C20.2557 4.57921 15.832 0.155518 10.3946 0.155518ZM10.3946 19.2203C5.3197 19.2203 1.19085 15.0915 1.19085 10.0166C1.19085 4.94177 5.3197 0.812925 10.3946 0.812925C15.4694 0.812925 19.5983 4.94177 19.5983 10.0166C19.5983 15.0915 15.4694 19.2203 10.3946 19.2203Z" fill="#674D40"/>
<path d="M10.7233 8.7088V5.37509C10.7233 5.19332 10.5761 5.04639 10.3946 5.04639C10.2132 5.04639 10.0659 5.19332 10.0659 5.37509V8.7088C9.60608 8.82845 9.24615 9.18838 9.1265 9.64824H6.7789C6.59745 9.64824 6.4502 9.79517 6.4502 9.97694C6.4502 10.1587 6.59745 10.3056 6.7789 10.3056H9.1265C9.27343 10.871 9.78391 11.2918 10.3946 11.2918C11.1198 11.2918 11.7095 10.7021 11.7095 9.97694C11.7095 9.36588 11.2887 8.85573 10.7233 8.7088ZM10.3946 10.6344C10.0321 10.6344 9.73723 10.3395 9.73723 9.97694C9.73723 9.61438 10.0321 9.31954 10.3946 9.31954C10.7572 9.31954 11.052 9.61438 11.052 9.97694C11.052 10.3395 10.7572 10.6344 10.3946 10.6344Z" fill="#674D40"/>
<path d="M10.3946 3.40286C10.5761 3.40286 10.7233 3.25593 10.7233 3.07416V2.74545C10.7233 2.56368 10.5761 2.41675 10.3946 2.41675C10.2132 2.41675 10.0659 2.56368 10.0659 2.74545V3.07416C10.0659 3.25593 10.2132 3.40286 10.3946 3.40286Z" fill="#674D40"/>
<path d="M10.3946 16.551C10.2132 16.551 10.0659 16.698 10.0659 16.8797V17.2084C10.0659 17.3902 10.2132 17.5371 10.3946 17.5371C10.5761 17.5371 10.7233 17.3902 10.7233 17.2084V16.8797C10.7233 16.698 10.5761 16.551 10.3946 16.551Z" fill="#674D40"/>
<path d="M17.6259 9.64819H17.2972C17.1158 9.64819 16.9685 9.79512 16.9685 9.9769C16.9685 10.1587 17.1158 10.3056 17.2972 10.3056H17.6259C17.8074 10.3056 17.9546 10.1587 17.9546 9.9769C17.9546 9.79512 17.8074 9.64819 17.6259 9.64819Z" fill="#674D40"/>
<path d="M3.49188 9.64819H3.16318C2.98173 9.64819 2.83447 9.79512 2.83447 9.9769C2.83447 10.1587 2.98173 10.3056 3.16318 10.3056H3.49188C3.67332 10.3056 3.82058 10.1587 3.82058 9.9769C3.82058 9.79512 3.67332 9.64819 3.49188 9.64819Z" fill="#674D40"/>
<path d="M15.2756 4.63094L15.0432 4.86333C14.9146 4.99185 14.9146 5.19959 15.0432 5.32812C15.1073 5.39222 15.1914 5.42443 15.2756 5.42443C15.3597 5.42443 15.4439 5.39222 15.508 5.32812L15.7404 5.09572C15.8689 4.9672 15.8689 4.75946 15.7404 4.63094C15.6118 4.50241 15.4041 4.50274 15.2756 4.63094Z" fill="#674D40"/>
<path d="M5.28118 14.6253L5.04878 14.8577C4.92026 14.9862 4.92026 15.194 5.04878 15.3225C5.11288 15.3866 5.19703 15.4188 5.28118 15.4188C5.36533 15.4188 5.44947 15.3866 5.51357 15.3225L5.74596 15.0901C5.87449 14.9616 5.87449 14.7538 5.74596 14.6253C5.61744 14.4968 5.40937 14.4971 5.28118 14.6253Z" fill="#674D40"/>
<path d="M15.508 14.6254C15.3794 14.4969 15.1717 14.4969 15.0432 14.6254C14.9146 14.754 14.9146 14.9617 15.0432 15.0902L15.2756 15.3226C15.3397 15.3867 15.4238 15.4189 15.508 15.4189C15.5921 15.4189 15.6763 15.3867 15.7404 15.3226C15.8689 15.1941 15.8689 14.9864 15.7404 14.8578L15.508 14.6254Z" fill="#674D40"/>
<path d="M5.51357 4.63082C5.38505 4.50229 5.17731 4.50229 5.04878 4.63082C4.92026 4.75934 4.92026 4.96708 5.04878 5.0956L5.28118 5.328C5.34528 5.39209 5.42942 5.42431 5.51357 5.42431C5.59772 5.42431 5.68187 5.39209 5.74596 5.328C5.87449 5.19947 5.87449 4.99173 5.74596 4.86321L5.51357 4.63082Z" fill="#674D40"/>
</g>
<defs>
<clipPath id="clip0">
<rect width="19.7222" height="19.7222" fill="white" transform="translate(0.533447 0.155518)"/>
</clipPath>
</defs>
</svg>
