<svg width="18" height="18" viewBox="0 0 18 18" fill="none" xmlns="http://www.w3.org/2000/svg">
<path d="M17.0744 18C17.3115 18 17.5486 17.9098 17.7288 17.7283C18.0904 17.3667 18.0904 16.7803 17.7288 16.4187L1.58088 0.271234C1.21923 -0.0904114 0.632896 -0.0904114 0.271242 0.271234C-0.0904121 0.63288 -0.0904121 1.2192 0.271242 1.58107L16.4189 17.7283C16.6004 17.9087 16.8375 18 17.0744 18Z" fill="#2E2520"/>
<path d="M0.925385 18C1.16249 18 1.39938 17.9098 1.57975 17.7283L17.7288 1.58107C18.0904 1.2192 18.0904 0.63288 17.7288 0.271234C17.3671 -0.0904114 16.7808 -0.0904114 16.4189 0.271234L0.271242 16.4187C-0.0904121 16.7803 -0.0904121 17.3667 0.271242 17.7283C0.452747 17.9087 0.689631 18 0.925385 18Z" fill="#2E2520"/>
</svg>
