<svg width="11" height="19" viewBox="0 0 11 19" fill="none" xmlns="http://www.w3.org/2000/svg">
<path d="M9.88554 0.00395327L7.42167 0C4.65359 0 2.86474 1.8353 2.86474 4.67593V6.83184H0.38742C0.173351 6.83184 0 7.00539 0 7.21946V10.3431C0 10.5572 0.173549 10.7306 0.38742 10.7306H2.86474V18.6126C2.86474 18.8267 3.03809 19 3.25216 19H6.48435C6.69842 19 6.87177 18.8265 6.87177 18.6126V10.7306H9.76833C9.9824 10.7306 10.1557 10.5572 10.1557 10.3431L10.1569 7.21946C10.1569 7.11667 10.116 7.01824 10.0435 6.9455C9.97093 6.87276 9.8721 6.83184 9.76932 6.83184H6.87177V5.00424C6.87177 4.12583 7.08109 3.6799 8.22537 3.6799L9.88515 3.67931C10.099 3.67931 10.2724 3.50576 10.2724 3.29189V0.391374C10.2724 0.177699 10.0992 0.0043486 9.88554 0.00395327Z" fill="#2E2520"/>
</svg>
