<svg width="19" height="19" viewBox="0 0 19 19" fill="none" xmlns="http://www.w3.org/2000/svg">
<path d="M9.68737 19C9.62445 19 9.56154 19 9.49819 18.9997C8.00883 19.0033 6.63268 18.9655 5.29438 18.884C4.0674 18.8094 2.94741 18.3854 2.0553 17.658C1.1945 16.9561 0.606674 16.007 0.308194 14.8375C0.048418 13.8193 0.0346464 12.8198 0.0214547 11.8531C0.011887 11.1595 0.0020295 10.3375 0 9.50171C0.0020295 8.6624 0.011887 7.84048 0.0214547 7.14686C0.0346464 6.18027 0.048418 5.18078 0.308194 4.16244C0.606674 2.99291 1.1945 2.04387 2.0553 1.34198C2.94741 0.614572 4.0674 0.190568 5.29452 0.115914C6.63283 0.0345919 8.00926 -0.00338736 9.50181 0.000236614C10.9916 -0.00295248 12.3673 0.0345919 13.7056 0.115914C14.9326 0.190568 16.0526 0.614572 16.9447 1.34198C17.8056 2.04387 18.3933 2.99291 18.6918 4.16244C18.9516 5.18063 18.9654 6.18027 18.9785 7.14686C18.9881 7.84048 18.9981 8.6624 19 9.49823V9.50171C18.9981 10.3375 18.9881 11.1595 18.9785 11.8531C18.9654 12.8197 18.9517 13.8192 18.6918 14.8375C18.3933 16.007 17.8056 16.9561 16.9447 17.658C16.0526 18.3854 14.9326 18.8094 13.7056 18.884C12.424 18.962 11.1074 19 9.68737 19ZM9.49819 17.5153C10.9633 17.5188 12.3086 17.4818 13.6155 17.4024C14.5432 17.346 15.3476 17.0449 16.0066 16.5076C16.6158 16.0108 17.0353 15.3254 17.2535 14.4705C17.4698 13.6229 17.4822 12.7128 17.4943 11.8328C17.5037 11.1438 17.5135 10.3277 17.5156 9.49997C17.5135 8.67211 17.5037 7.85614 17.4943 7.16715C17.4822 6.2871 17.4698 5.37705 17.2535 4.52933C17.0353 3.67437 16.6158 2.989 16.0066 2.49223C15.3476 1.95501 14.5432 1.65393 13.6155 1.59754C12.3086 1.51796 10.9633 1.48128 9.50167 1.48447C8.03681 1.48099 6.69139 1.51796 5.38454 1.59754C4.45677 1.65393 3.65237 1.95501 2.99336 2.49223C2.38422 2.989 1.9647 3.67437 1.74653 4.52933C1.53024 5.37705 1.51777 6.28696 1.50574 7.16715C1.49632 7.85672 1.48646 8.67327 1.48443 9.50171C1.48646 10.3265 1.49632 11.1432 1.50574 11.8328C1.51777 12.7128 1.53024 13.6229 1.74653 14.4705C1.9647 15.3254 2.38422 16.0108 2.99336 16.5076C3.65237 17.0448 4.45677 17.3459 5.38454 17.4023C6.69139 17.4818 8.0371 17.519 9.49819 17.5153ZM9.46282 14.1387C6.90507 14.1387 4.82397 12.0578 4.82397 9.49997C4.82397 6.94217 6.90507 4.86129 9.46282 4.86129C12.0207 4.86129 14.1017 6.94217 14.1017 9.49997C14.1017 12.0578 12.0207 14.1387 9.46282 14.1387ZM9.46282 6.34567C7.72354 6.34567 6.3084 7.76076 6.3084 9.49997C6.3084 11.2392 7.72354 12.6543 9.46282 12.6543C11.2022 12.6543 12.6172 11.2392 12.6172 9.49997C12.6172 7.76076 11.2022 6.34567 9.46282 6.34567ZM14.6212 3.37691C14.0064 3.37691 13.5079 3.87528 13.5079 4.49019C13.5079 5.10511 14.0064 5.60348 14.6212 5.60348C15.2362 5.60348 15.7345 5.10511 15.7345 4.49019C15.7345 3.87528 15.2362 3.37691 14.6212 3.37691Z" fill="#2E2520"/>
</svg>
