<svg width="11" height="15" viewBox="0 0 11 15" fill="none" xmlns="http://www.w3.org/2000/svg">
<path d="M5.5 0.559082C8.53262 0.559082 11 3.02647 11 6.05908C11 7.25921 10.6209 8.39954 9.90282 9.35626L5.83903 14.8295C5.82887 14.8427 5.81336 14.8478 5.80208 14.8597C5.599 15.0771 5.30595 15.0224 5.16126 14.8295C3.99103 13.2681 1.84603 10.3519 1.02131 9.2519C1.02131 9.2519 1.02103 9.25105 1.02075 9.25049L1.01567 9.24372C0.351157 8.31013 3.8147e-06 7.209 3.8147e-06 6.05908C3.8147e-06 3.02647 2.46739 0.559082 5.5 0.559082ZM5.5 9.02626C7.1328 9.02626 8.46718 7.69187 8.46718 6.05908C8.46718 4.42629 7.1328 3.0919 5.5 3.0919C3.86721 3.0919 2.53282 4.42629 2.53282 6.05908C2.53282 7.69187 3.86721 9.02626 5.5 9.02626Z" fill="black"/>
</svg>
