<svg width="21" height="19" viewBox="0 0 21 19" fill="none" xmlns="http://www.w3.org/2000/svg">
<path d="M7.11045 0.432617C4.95487 0.432617 3.19922 2.18827 3.19922 4.34385C3.19922 6.49943 4.95487 8.25508 7.11045 8.25508C9.26603 8.25508 11.0217 6.49943 11.0217 4.34385C11.0217 2.18827 9.26603 0.432617 7.11045 0.432617ZM7.11045 7.59921C5.3108 7.59921 3.85109 6.1355 3.85109 4.33985C3.85109 2.5442 5.3148 1.08049 7.11045 1.08049C8.9101 1.08049 10.3698 2.5442 10.3698 4.33985C10.3698 6.1355 8.9061 7.59921 7.11045 7.59921Z" fill="#674D40"/>
<path d="M15.121 2.0564C13.5013 2.0564 12.1855 3.37214 12.1855 4.99182C12.1855 6.6115 13.5013 7.92724 15.121 7.92724C16.7407 7.92724 18.0564 6.6115 18.0564 4.99182C18.0564 3.37214 16.7407 2.0564 15.121 2.0564ZM15.121 7.27937C13.8612 7.27937 12.8374 6.25557 12.8374 4.99582C12.8374 3.73607 13.8612 2.71227 15.121 2.71227C16.3807 2.71227 17.4045 3.73607 17.4045 4.99582C17.4045 6.25557 16.3807 7.27937 15.121 7.27937Z" fill="#674D40"/>
<path d="M20.3718 12.2304C20.0759 10.4467 18.9681 8.94301 17.0805 8.15517C17.0805 8.15517 16.2447 8.78704 15.1209 8.76705C13.8931 8.74305 13.1613 8.15517 13.1613 8.15517C13.1613 8.15517 12.2494 8.4951 11.5136 9.20296C10.8337 8.59908 9.68594 8.10718 9.68594 8.10718C9.68594 8.10718 8.63415 8.90702 7.10644 8.89502C5.50276 8.88303 4.53495 8.10718 4.53495 8.10718C4.53495 8.10718 1.06763 9.29894 0.335772 13.3422C0.335772 13.3422 -0.448074 15.4857 1.36757 18.6891H12.8573C12.8573 18.6891 13.6732 17.2694 13.8171 16.4056H19.532C20.9357 14.278 20.3718 12.2304 20.3718 12.2304ZM12.4534 18.0372H1.77149C0.375764 15.3858 0.979646 13.4501 0.979646 13.4501C1.31958 11.4225 2.62332 9.71086 4.48696 8.84303C6.08665 9.78285 8.13824 9.78285 9.73793 8.84303C11.6016 9.71086 12.9053 11.4225 13.2452 13.4501C13.2412 13.4501 13.8211 15.8337 12.4534 18.0372ZM19.1521 15.7537H13.9491C14.1491 14.6019 13.8851 13.3422 13.8851 13.3422C13.6492 11.9184 12.9773 10.6347 11.9935 9.64288C12.3294 9.33894 12.7013 9.08699 13.1093 8.89102C14.337 9.59489 15.9007 9.59489 17.1285 8.89102C18.5082 9.55089 19.476 10.8266 19.728 12.3383C19.728 12.3383 20.2039 13.954 19.1521 15.7537Z" fill="#674D40"/>
</svg>
