<svg width="13" height="13" viewBox="0 0 13 13" fill="none" xmlns="http://www.w3.org/2000/svg">
<path d="M11.9559 8.53233C11.1601 8.53233 10.3787 8.40786 9.63815 8.16314C9.2753 8.03938 8.82924 8.15292 8.60778 8.38037L7.14618 9.48372C5.45113 8.57891 4.40702 7.53513 3.51456 5.85282L4.58545 4.42929C4.86368 4.15144 4.96347 3.74556 4.84391 3.36473C4.59815 2.62034 4.4733 1.83929 4.4733 1.0431C4.47333 0.467929 4.00541 0 3.43027 0H1.04306C0.467929 0 0 0.467929 0 1.04306C0 7.63564 5.36336 12.999 11.9559 12.999C12.5311 12.999 12.999 12.531 12.999 11.9559V9.57536C12.999 9.00026 12.531 8.53233 11.9559 8.53233Z" fill="#2E2520"/>
</svg>
