<svg width="24" height="19" viewBox="0 0 24 19" fill="none" xmlns="http://www.w3.org/2000/svg">
<path d="M24 2.24931C23.1075 2.63077 22.1565 2.88362 21.165 3.00638C22.185 2.413 22.9635 1.48054 23.3295 0.356615C22.3785 0.909077 21.3285 1.29931 20.2095 1.51708C19.3065 0.580231 18.0195 0 16.6155 0C13.8915 0 11.6985 2.15431 11.6985 4.79531C11.6985 5.17531 11.7315 5.54069 11.8125 5.88854C7.722 5.69415 4.1025 3.78392 1.671 0.874C1.2465 1.59162 0.9975 2.413 0.9975 3.29723C0.9975 4.95754 1.875 6.42931 3.183 7.28138C2.3925 7.26677 1.617 7.04315 0.96 6.69092C0.96 6.70554 0.96 6.72454 0.96 6.74354C0.96 9.07323 2.6655 11.0083 4.902 11.4541C4.5015 11.5608 4.065 11.6119 3.612 11.6119C3.297 11.6119 2.979 11.5944 2.6805 11.5301C3.318 13.4286 5.127 14.8244 7.278 14.8697C5.604 16.1456 3.4785 16.9144 1.1775 16.9144C0.774 16.9144 0.387 16.8968 0 16.8486C2.1795 18.2181 4.7625 19 7.548 19C16.602 19 21.552 11.6923 21.552 5.358C21.552 5.14608 21.5445 4.94146 21.534 4.73831C22.5105 4.06308 23.331 3.21977 24 2.24931Z" fill="#2E2520"/>
</svg>
