<svg width="158" height="71" fill="none" xmlns="http://www.w3.org/2000/svg"><path d="M93.768 35.494c0 .578-.018 1.157 0 1.736.197 5.886-1.633 11.189-4.57 16.189a72.893 72.893 0 00-2.775 5.133c-.7 1.44-1.673 2.45-3.185 3.04-.845.328-1.629.898-2.337 1.484-3.26 2.703-6.957 4.639-10.913 6.002-2.627.906-5.332 1.702-8.187 1.666-.85-.01-1.703.253-2.556.256-.853.003-1.704-.275-2.549-.239-3.68.159-7.09-.979-10.475-2.172-3.695-1.301-6.957-3.357-10.026-5.807-4.33-3.456-7.417-7.81-9.686-12.793-1.222-2.686-2.218-5.458-2.499-8.439-.047-.495-.21-.984-.355-1.464-1.03-3.344-.437-6.622.2-9.954.487-2.548.988-5.065 1.937-7.484 2.507-6.398 6.49-11.638 12.004-15.753 4.598-3.428 9.744-5.534 15.34-6.44 6.42-1.038 12.687-.29 18.769 2.137 3.034 1.215 5.897 2.753 8.398 4.79 2.332 1.9 4.436 4.124 6.423 6.396 1.802 2.06 3.08 4.513 4.222 7.015 1.783 3.91 2.946 7.957 2.828 12.305-.026.803-.007 1.6-.008 2.396zm-2.465-7.921c-.178-1.367-.288-2.95-.621-4.486-.948-4.42-3.497-7.871-6.894-10.69-1.93-1.601-4.032-2.993-6.105-4.41-.702-.479-1.517-.92-2.337-1.067-2.107-.39-4.238-.754-6.374-.864-3.707-.19-7.037-1.15-9.835-3.738-2.06-1.903-4.303-2.088-6.444-.412-2.427 1.898-5.19 3.012-8.004 4.115-2.063.808-4.05 1.826-6.034 2.832-1.657.842-2.623 2.155-2.6 4.143.014 1.115-.495 2.047-1.524 2.665a23.446 23.446 0 00-2.467 1.715c-2.195 1.733-3.904 3.686-4.273 6.717-.292 2.396-1.015 4.766-2.65 6.74a4.529 4.529 0 00-.977 2.37c-.15 1.792-.088 3.605-.044 5.408.012.482.22.999.467 1.424a34.17 34.17 0 001.843 2.917c1.606 2.242 3.003 4.54 3.326 7.387.312 2.76 1.64 5.007 3.885 6.723 3.253 2.487 6.389 5.127 9.69 7.549 1.775 1.304 3.674 2.445 6.015 2.71 2.34.264 4.635.904 6.733 2.088.44.238.923.386 1.42.437 2.96.32 5.701-.416 8.301-1.807a40.369 40.369 0 012.499-1.211c2.032-.914 4.284-1.513 6.054-2.785 1.97-1.418 4.075-2.047 6.335-2.443.976-.172 1.774-.576 2.41-1.305.758-.865 1.46-1.78 2.25-2.616.818-.862 1.408-1.78 1.55-3.009.22-1.884 1.023-3.548 2.041-5.146 1.725-2.7 2.706-5.685 3.216-8.858.134-.832.21-1.536-.2-2.268-1.188-2.114-.704-4.514-1.079-6.764-.19-1.217.248-2.547.431-4.064l-.004.003zM77.013 6.455c-.5-.556-.66-.808-.887-.964-.41-.284-.857-.517-1.293-.763C71.108 2.62 67.025 1.596 62.855.86 62.018.71 61.137.778 60.282.81c-.222.009-.488.226-.629.422-.065.089.081.4.204.549a7.995 7.995 0 003.501 2.422c2.355.851 4.83 1.318 7.331 1.383 1.06.029 2.116.23 3.171.374.9.129 1.799.282 3.153.495zm-31.66 60.738c-2.501-2.052-4.694-3.886-6.925-5.672-1.847-1.477-3.734-2.905-5.622-4.33-.213-.16-.547-.155-1.011-.276 2.275 3.835 9.872 9.66 13.558 10.278zM28.501 19.301c1.509-1.157 2.904-2.375 4.437-3.382 2.148-1.406 2.97-3.153 2.462-6.152-1.524 1.251-2.611 2.759-3.787 4.129-1.242 1.444-2.163 3.165-3.199 4.782-.08.13.05.389.087.623zm50.872 43.757c-1.407-.097-2.825.153-3.707.915-1.675 1.447-3.668 2.174-5.696 2.897-1.064.38-2.068.937-3.07 1.468-.139.073-.165.464-.136.694.01.078.385.205.54.152 1.82-.623 3.7-1.125 5.425-1.958 2.114-1.018 4.099-2.308 6.122-3.504.212-.119.324-.401.522-.664zM25.614 43.003c-.404 1.197-.325 1.86-.07 2.566.705 1.958 1.134 4.024 2.405 5.735.472.634.568 2.053 1.438 1.747.765-.267-.13-1.39-.183-2.148-.2-2.893-1.716-5.225-3.59-7.9zM39.263 6.97l.189.285c1.051-.391 2.113-.762 3.153-1.18a486.24 486.24 0 006.765-2.784c.453-.192.868-.5 1.255-.812.108-.089.089-.388.055-.573-.017-.083-.231-.172-.355-.178-.21.005-.42.04-.62.103-3.056.872-5.938 2.161-8.696 3.727-.645.367-1.168.936-1.746 1.412zm53.666 31.074c.185-.215.33-.305.34-.406.297-3.153-.035-6.277-.466-9.393-.021-.156-.237-.38-.385-.4-.162-.02-.415.115-.514.26-.161.232-.262.5-.292.781-.162 2.57.006 5.15.502 7.676.097.51.518.96.815 1.482zm-68.053-8.699c1.192-.456 1.37-1.283 1.499-2.029.311-1.82 1.09-3.572.833-5.496-1.247 2.296-2.352 4.623-2.331 7.525h-.001zm28.86 39.955c-2.672-1.187-3.397-1.312-5.777-.98 1.009.385 1.917.994 2.83 1.004.952.014 1.983 1.185 2.949-.024h-.001z" fill="#2E2520"/><path d="M59.25 45.691c-1.828-.032-3.084-.8-4.014-2.284-.866-1.384-2.306-2.102-3.626-2.955-1.663-1.074-3.017-2.286-3.4-4.464-.267-1.477.043-2.76.64-3.925.501-.975 1.395-1.88 2.335-2.46 1.019-.628 1.863-1.22 2.334-2.381.532-1.335 1.874-1.416 3.062-1.656 1.118-.226 2.256-.371 3.359-.655 1.508-.386 2.877-.267 3.98.913.851.915 1.846 1.57 2.955 2.126 1.153.577 1.534 1.25 1.173 2.456-.246.817-.008 1.375.295 2.028.332.712.673 1.435.902 2.188.76 2.502-.115 4.609-2.454 5.723-1.45.69-2.56 1.611-2.92 3.23-.145.652-.55 1.023-1.124 1.192-1.157.34-2.33.62-3.498.924zM66.922 35.2c.037-4.409-3.292-7.934-7.621-7.94-3.885 0-7.792 2.64-7.944 7.696-.121 4.048 3.237 7.818 7.615 7.832 5.331.027 7.846-3.69 7.95-7.588zm-15.607 4.215c0-.565.054-.854-.008-1.115-.575-2.395-.948-4.767.355-7.074.094-.165-.123-.507-.196-.767-.255.083-.564.1-.757.259-2.152 1.773-3.112 6.03.606 8.697zm7.99-13.261c.9.331 1.415.566 1.952.712 1.983.527 3.675 1.474 4.853 3.22.232.344.532.854.976.463.236-.21.313-.848.177-1.168-.183-.424-.6-.954-1.001-1.038-1.09-.228-1.686-1.02-2.396-1.711-1.194-1.15-2.528-1.512-4.56-.478zm-.122 17.355l-.027-.166c-.571 0-1.148-.05-1.71.02-.29.036-.552.282-.827.434.25.221.467.57.755.642 1.536.39 3.086.473 4.601-.123.26-.102.547-.235.71-.444.144-.178.19-.494.161-.734-.011-.089-.37-.223-.547-.195-1.04.164-2.077.37-3.112.564l-.004.002zm7.86-4.522c1.064-.198 1.54-.8 1.602-1.727.046-.781.034-1.565-.034-2.344-.017-.205-.303-.389-.465-.583-.237.225-.718.528-.674.663.432 1.352-.472 2.563-.43 3.989v.002zM76.783 45.09c-.061.032-.308.24-.575.268-.243.028-.598-.054-.749-.224a38.337 38.337 0 01-2.169-2.66c-.177-.241-.25-.89-.149-.946.333-.184.983-.376 1.128-.217.856.948 1.61 1.99 2.383 3.012.076.102.053.277.13.768zM40.535 52.514c.396.032 1.178.056 1.94.187.19.033.444.406.444.629 0 .222-.22.607-.41.654-1.481.37-2.956.46-4.267-.534a.667.667 0 01-.209-.548c.029-.148.258-.356.413-.366.569-.048 1.139-.022 2.09-.022zM86.968 21.216l.56.308c-.158.286-.256.745-.488.828a22.9 22.9 0 01-3.275.938c-.32.063-.785-.253-1.08-.514-.34-.301-.138-.956.292-1.022 1.262-.195 2.534-.345 3.99-.538zM49.25 58.887c.594.278 1.09.356 1.332.652.663.826 1.27 1.696 1.816 2.604.266.433.023.901-.425 1.026-.246.068-.691-.133-.872-.356a28.308 28.308 0 01-2.007-2.746c-.142-.227.078-.683.157-1.18zM72.506 24.446c.037-.253 0-.542.118-.653.16-.146.502-.267.666-.188.225.108.37.403.525.635.43.647.854 1.296 1.263 1.958.183.297.429.613.444.932.018.296-.162.68-.383.882-.124.114-.632.04-.757-.117-.82-1.046-1.803-2.025-1.876-3.449zM75.057 13.335c-.177 1.068-.248 1.854-.455 2.607-.13.407-.377.766-.71 1.031-.235.19-.645.163-.976.233-.027-.31-.123-.635-.067-.93.173-.91.404-1.808.612-2.71.016-.07.011-.146.032-.214.163-.545.516-.96 1.081-.734.285.114.418.613.483.717zM59.759 20.28c.498.063 1.144.097 1.76.246.21.051.52.431.484.595-.064.293-.307.678-.564.765-.406.128-.841.13-1.249.006-.71-.226-1.37-.302-2.079-.005-.465.196-.901-.01-1.025-.474-.166-.623.3-.925.825-1.013.559-.093 1.136-.078 1.848-.12zM70.826 50.965c-.202.884-.355 1.659-.573 2.416-.042.149-.355.35-.486.315-.236-.057-.568-.244-.616-.438a2.93 2.93 0 01-.035-1.281c.167-.776.33-1.513.018-2.306-.15-.38-.107-.986.468-.985.31 0 .755.385.894.703.227.508.242 1.106.33 1.576zM62.095 50.738c-.115.207-.171.452-.323.557-.934.646-1.87 1.295-2.853 1.86-.252.144-.692.055-1.013-.04-.47-.14-.567-.76-.177-1.01a77.267 77.267 0 013.265-2.015c.177-.102.532.008.761.122.155.078.222.331.34.526zM50.191 9.22c.152.089.438.167.476.308.37 1.371.728 2.747 1.023 4.135.082.386-.427.6-.767.37-1.073-.725-1.741-3.408-1.116-4.53.065-.112.223-.168.384-.283zM63.447 13.115c-.323-.216-.672-.326-.719-.513-.05-.203.117-.55.298-.712.787-.706 1.61-1.37 2.466-1.99.289-.204.888-.348 1.11-.19.523.37.248.89-.117 1.272-.49.513-.976 1.055-1.54 1.47-.433.312-.988.446-1.498.663zM43.05 20.362l-.784.744c-.224-.243-.556-.445-.65-.735a53.327 53.327 0 01-.99-3.451c-.041-.16.089-.485.222-.54.217-.09.575-.125.74 0 .325.24.697.564.803.926.28.944.427 1.93.659 3.056zM34.463 39.398c-.72 1.324-1.266 2.68-2.606 3.401-.225.121-.724-.034-.965-.227-.41-.327 0-.598.2-.877.628-.868 1.21-1.774 1.878-2.61.172-.215.61-.32.906-.291.203.019.368.364.587.604zM42.591 39.51c.375.218.648.283.698.427.084.235.127.604 0 .767-.206.26-.558.41-.861.584-.787.453-1.563.93-2.382 1.317-.249.117-.7.082-.922-.077-.457-.326-.297-.85.07-1.08 1.124-.706 2.305-1.324 3.397-1.938zM83.27 33.517c-.289.654-.695 1.641-1.177 2.59-.075.147-.541.227-.739.139-.184-.083-.384-.454-.347-.655.194-1.055.407-2.113.733-3.131.1-.311.548-.593.893-.697.128-.039.463.445.621.74.091.167.016.423.016 1.014zM34.237 25.653c1.274 1.146 1.122 2.703 1.263 4.14.027.267-.304.649-.569.842-.138.102-.7-.061-.714-.155a83.014 83.014 0 01-.478-4.372c-.01-.125.29-.277.498-.455zM63.99 61.15c.214.056.424.125.63.206.764.356 1.533.702 2.28 1.094.354.185.71.416.965.712.294.342-.042 1-.453.91-1.387-.3-2.743-.72-3.781-1.762-.154-.154-.15-.54-.1-.795.029-.144.297-.244.46-.366zM47.103 26.072c.073.23.325.588.237.813-.466 1.188-1.006 2.348-1.555 3.5-.067.142-.355.268-.525.245-.15-.019-.355-.229-.394-.388-.291-1.285.627-3.584 1.65-4.162.105-.06.274-.008.587-.008zM86.782 45.571c-.16-.101-.492-.225-.665-.464-.07-.096.154-.53.347-.669a31.463 31.463 0 012.633-1.75c.245-.144.754-.154.934.007.166.15.191.712.041.918-.761 1.065-1.721 1.877-3.29 1.958zM81.51 54.737c-.658-.069-.945-.076-1.219-.137-.116-.026-.29-.164-.291-.254a.954.954 0 01.15-.574c.141-.161.326-.277.532-.334 1.015-.306 2.031-.613 3.061-.861.224-.054.695.094.724.222.068.305-.013.672-.132.98-.063.161-.314.296-.506.355-.882.243-1.768.46-2.319.603zM50.947 47.38c-.073.311-.191 1-.42 1.648-.056.161-.5.316-.704.257-.204-.058-.443-.396-.437-.607.021-1.2.08-2.403.202-3.598.026-.26.355-.49.545-.734.227.241.595.454.653.73.128.62.101 1.271.16 2.305zM98.513 9.812c0-2.543.613-4.472 1.839-5.785 1.24-1.328 2.829-1.992 4.765-1.992 1.937 0 3.476.573 4.618 1.719 1.157 1.146 1.735 2.977 1.735 5.492 0 2.516-.613 4.416-1.839 5.702-1.226 1.286-2.863 1.929-4.911 1.929-1.769 0-3.218-.51-4.347-1.53-.585-.532-1.045-1.265-1.379-2.202-.32-.95-.48-2.061-.48-3.333zm6.541-7.567c-1.407 0-2.563.629-3.469 1.886-.891 1.258-1.337 3.103-1.337 5.534 0 2.432.425 4.207 1.275 5.325.849 1.118 1.978 1.677 3.385 1.677 1.421 0 2.577-.629 3.469-1.887.906-1.271 1.358-3.11 1.358-5.513 0-2.417-.431-4.192-1.295-5.324-.85-1.132-1.979-1.698-3.386-1.698zM115.084 16.793h-1.734V2.119h1.734v6.75h6.792v-6.75h1.735v14.674h-1.735V9.079h-6.792v7.714zM132.527 16.793h-.272l1.818-14.674h.69l4.388 13.563 4.368-13.563h.69l1.818 14.674h-1.735l-1.442-11.74-3.782 11.74h-1.317L133.927 5.2l-1.4 11.593zM157.603 2.119c.265.265.397.608.397 1.027 0 .35-.077.706-.23 1.07l-3.741 7.609v4.968h-1.734v-4.507l-4.18-10.167h1.777l3.991 9.454 3.636-7.358c.154-.35.23-.713.23-1.09 0-.377-.104-.67-.313-.88l.167-.126zM2.946 20.648c1.08-.049 2.136-.074 3.167-.074 1.056 0 2.16.111 3.314.333 1.179.221 2.333.64 3.462 1.256a9.02 9.02 0 012.91 2.327c.81.936 1.46 2.18 1.951 3.731.491 1.552.737 3.435.737 5.652 0 2.216-.369 4.211-1.105 5.984-.712 1.749-1.694 3.09-2.946 4.027-2.43 1.822-5.365 2.733-8.802 2.733-1.203 0-2.467-.05-3.793-.148H0V20.65h2.946zm.11 25.526c.516.05 1.167.074 1.952.074.786 0 1.375-.013 1.768-.037.393-.025.933-.123 1.62-.296a9.447 9.447 0 001.915-.776c.59-.32 1.203-.788 1.842-1.403a9.184 9.184 0 001.694-2.253c1.055-2.02 1.583-4.655 1.583-7.906 0-2.315-.282-4.31-.847-5.984-.565-1.7-1.215-2.955-1.952-3.768a7.603 7.603 0 00-2.614-1.92c-1.031-.493-1.854-.777-2.468-.85a18.09 18.09 0 00-2.136-.111c-.81 0-1.595.037-2.356.11v25.12zM99.111 46.47h-.479V20.61h1.252l15.32 23.9v-23.9h.479V46.47h-2.688L99.111 25.044V46.47zM138.359 20.611h.479v14.776c0 3.867-.761 6.711-2.283 8.533-1.522 1.798-3.511 2.697-5.966 2.697-1.547 0-2.86-.135-3.94-.406-1.081-.296-2.099-.825-3.057-1.589-1.964-1.526-2.946-4.605-2.946-9.235V20.611h3.057v14.74c0 4.482.675 7.474 2.025 8.976.687.739 1.399 1.244 2.136 1.514.761.271 1.669.407 2.725.407 2.357 0 4.235-.862 5.634-2.586 1.424-1.749 2.136-4.52 2.136-8.312V20.611zM151.401 46.47h-3.057V20.98h-6.371v-.369h15.836v.37h-6.408v25.488z" fill="#2E2520"/></svg>